<svg width="104" height="104" viewBox="0 0 104 104" fill="none" xmlns="http://www.w3.org/2000/svg">
<path d="M69.2474 30.4312C70.1841 30.3795 71.3975 30.4036 72.3408 30.4218C72.2587 35.0505 72.3483 39.8192 72.3259 44.4675C72.3309 47.1592 72.3781 49.9846 72.33 52.6678C73.5684 52.5983 75.4466 52.6591 76.7289 52.6871C76.7289 53.6947 76.7422 54.7294 76.7273 55.7344C75.5055 55.7461 73.5228 55.8005 72.3334 55.7233L72.3176 62.6421C71.2815 62.6404 69.797 62.5927 68.7882 62.6382L68.7924 55.7343C64.3653 55.8246 59.7675 55.6333 55.3255 55.7142C53.566 55.7462 51.6265 55.6519 49.8832 55.7556L49.8983 53.176C50.6891 52.2799 51.5673 51.3973 52.3784 50.5041C54.0507 48.6518 55.701 46.7789 57.3273 44.8861C59.9498 41.8202 62.5302 38.7191 65.0699 35.5839C66.4118 33.9292 67.8665 32.0195 69.2474 30.4312ZM54.5273 52.6761C58.021 52.573 61.5587 52.6978 65.0558 52.6422C66.2866 52.6226 67.5582 52.6313 68.7874 52.6752C68.8421 50.2034 68.799 47.5722 68.8114 45.0849L68.804 35.1183C67.8988 36.5339 65.8291 38.9893 64.7317 40.3635C63.6616 41.7024 61.785 44.1839 60.6544 45.3697C60.0493 46.4721 55.5195 51.6809 54.5273 52.6761Z" fill="white"/>
<path d="M69.2474 30.4312C70.1841 30.3795 71.3975 30.4036 72.3408 30.4218C72.2587 35.0505 72.3483 39.8192 72.3259 44.4675L72.1825 44.5301C72.001 45.4091 72.4345 47.6284 71.8816 47.8833C70.882 48.344 70.0431 48.4183 68.9581 48.9753C68.9565 48.1905 69.0004 45.6964 68.8114 45.0849L68.804 35.1183C67.8988 36.5339 65.8291 38.9893 64.7317 40.3635C63.6616 41.7024 61.785 44.1839 60.6544 45.3697C59.6224 45.4514 59.8064 47.5543 58.0708 46.8605C57.8312 46.3712 57.4019 46.4055 57.072 46.0813C56.6426 45.6594 57.3148 45.6187 57.3273 44.8861C59.9498 41.8202 62.5302 38.7191 65.0699 35.5839C66.4118 33.9292 67.8665 32.0195 69.2474 30.4312Z" fill="white"/>
<path d="M29.0931 39.8783C31.0165 32.3316 40.7322 29.0339 47.3878 32.0707C52.752 34.5183 56.0715 41.2519 53.0834 46.8107C52.5113 47.7815 49.2034 51.0876 48.1653 51.8845L48.0347 51.8438C47.8175 51.9227 47.4198 52.3158 47.2322 52.4851L47.1493 52.464L47.2147 52.0665C47.1391 51.7712 46.4245 51.0075 46.4876 50.9165C46.7641 50.5186 47.5226 49.8984 47.5503 49.3963C48.91 47.6275 50.2018 45.9243 50.5114 43.6318C50.8057 41.4523 50.3505 39.2724 49.0225 37.4957C47.6201 35.6373 45.5342 34.4191 43.2301 34.113C40.5062 33.7434 37.8745 34.2591 35.6449 35.9462C32.188 38.5621 30.8279 43.7201 33.6017 47.3358C33.3567 47.4392 33.0597 47.3915 32.7828 47.3768C32.2029 47.4318 30.6326 47.3828 29.9789 47.3814C29.9534 47.3353 29.9282 47.289 29.9034 47.2425C28.6573 44.9104 28.3213 42.423 29.0931 39.8783Z" fill="white"/>
<path d="M29.0931 39.8783C29.1974 40.7095 28.8546 41.4496 28.8891 42.2988L28.9322 42.2881L28.9991 42.1359L29.0857 42.1165C29.5318 42.9996 29.9663 43.8925 30.6997 44.5828C31.5332 45.3671 31.696 46.3523 32.3594 47.2404L32.4515 47.2488C32.5825 47.262 32.6166 47.2766 32.7433 47.3226L32.7828 47.3768C32.2029 47.4318 30.6326 47.3828 29.9789 47.3814C29.9534 47.3353 29.9282 47.289 29.9034 47.2425C28.6573 44.9104 28.3213 42.423 29.0931 39.8783Z" fill="white"/>
<path d="M40.3255 69.1548C41.1175 68.0999 41.7159 67.2072 42.3033 65.978C43.8267 62.7899 44.058 58.727 46.4962 56.0593C47.1283 55.3677 47.9586 54.9288 48.7575 54.5119C48.309 55.6396 47.2721 56.7449 46.7286 58.1709C45.013 62.673 45.3395 65.5178 41.9642 69.2585C44.6453 69.56 47.1665 69.8282 49.8678 69.9645C57.1059 70.3296 64.3346 69.5058 71.473 68.3642C72.18 68.2511 75.2253 67.8464 75.6721 67.6519L75.8942 67.661L76.8002 67.7079C75.8337 68.0021 76.8002 67.7079 72.1551 69.0728C71.7445 69.1935 68.4434 69.767 67.8814 69.8546C61.0987 70.9117 54.233 71.5654 47.37 71.0013C45.1763 70.8211 43.0061 70.5182 40.8138 70.3162L40.7804 70.3509C38.8215 72.3382 36.2769 73.4873 33.4367 73.5973C31.6842 73.6652 29.444 72.4596 31.3166 70.7872C33.4079 68.9196 37.6657 69.0372 40.3255 69.1548ZM34.1399 72.8007C36.4053 72.437 37.8023 71.4603 39.6003 70.1203C38.6935 70.0883 37.7859 70.0823 36.8788 70.102C35.4472 70.1758 31.9468 70.5357 31.4127 72.1032C31.5346 72.9723 33.4938 72.8577 34.1399 72.8007Z" fill="white"/>
<path d="M47.5503 49.3963C47.5226 49.8984 46.7641 50.5186 46.4876 50.9165C46.4245 51.0075 47.1391 51.7712 47.2147 52.0665L47.1493 52.464L47.2322 52.4851C47.4198 52.3158 47.8175 51.9227 48.0347 51.8438L48.1653 51.8845C47.9402 52.2277 45.1138 54.6561 44.6693 55.044L33.3584 64.7915C35.9213 64.5253 38.4906 64.3249 41.0638 64.1905L39.5167 67.4142C34.8703 67.3925 31.6946 67.9137 27.2634 69.1093C27.2289 68.1781 27.2645 67.3577 27.2002 66.3913C29.8902 64.5247 32.6491 62.4014 35.2403 60.3936C39.6893 56.946 43.8302 53.6425 47.5503 49.3963Z" fill="white"/>
<path d="M59.3108 57.7198C59.3763 57.7002 59.4533 57.7176 59.5304 57.7243C59.552 57.9531 58.6634 60.1504 58.5117 60.5663C59.087 60.5681 60.1836 60.465 60.4182 61.0748L60.3344 61.2577C60.046 61.3282 58.6029 61.2505 58.1885 61.2414C57.9141 62.1355 56.6741 65.8583 56.975 66.5041L57.1416 66.5477C59.4508 65.5627 59.9266 62.7714 62.1712 61.5298C62.9579 61.0949 64.1059 60.6121 65.0193 60.8867C65.413 61.0029 65.7379 61.2822 65.9128 61.6541C66.0471 61.9435 66.0512 62.0598 65.9518 62.314L65.7363 62.3743C65.2572 62.1933 65.1975 61.4164 64.4813 61.5116C62.6793 61.7515 60.7737 64.1859 60.7132 65.9573C60.7058 66.1759 60.8077 66.2691 60.9544 66.3894C62.9015 66.6743 64.2451 62.0469 66.1723 62.8765C66.2162 62.9312 66.2593 62.9859 66.3032 63.0406C66.1507 63.7984 64.7698 65.4795 65.0209 66.2788C65.418 67.5374 68.0596 65.5232 68.392 65.3777L68.489 65.4317C68.2652 66.6526 64.1456 68.5709 63.6964 66.3495C63.6417 66.0811 63.7428 65.8406 63.6367 65.4789C63.4253 65.5286 62.7772 66.2127 62.5301 66.3829C60.9205 67.4934 59.7923 67.8654 59.2105 65.6895L59.0339 65.8784C57.9448 67.1045 55.5394 68.6483 55.5012 65.7782C54.8058 66.5947 53.9578 67.4897 52.8075 67.4966C51.7362 67.5031 51.5675 66.522 51.6013 65.6885C49.6354 68.2245 46.038 68.698 47.5726 64.6215C48.2629 62.7881 51.337 60.1726 53.4042 61.0266C53.7349 61.1633 54.059 61.5714 54.1576 61.9232C54.1186 62.2108 54.1667 62.1024 53.9694 62.3156C53.5118 62.1036 53.0118 61.5975 52.5115 61.6158C51.1706 61.6648 47.7626 65.7764 48.9277 66.8473C50.1497 67.0222 52.4676 63.6675 53.0909 62.7808C53.5975 62.7974 53.9089 62.733 54.2579 63.0492C54.4842 63.9463 52.3172 65.5857 53.2031 66.624C53.425 66.6651 53.6412 66.6064 53.836 66.4969C55.7076 65.4471 56.035 63.1329 56.694 61.2815C56.2696 61.3364 55.6081 61.5258 55.3844 61.093C55.6562 60.555 56.4312 60.6052 56.9509 60.5903C57.2087 59.7165 57.469 58.8717 57.8022 58.0238C58.4114 57.8539 58.6883 57.8048 59.3108 57.7198Z" fill="white"/>
</svg>
